<?xml version="1.0" encoding="UTF-8" standalone="no"?>
<svg width="23px" height="17px" viewBox="0 0 23 17" version="1.1" xmlns="http://www.w3.org/2000/svg" xmlns:xlink="http://www.w3.org/1999/xlink">
    <!-- Generator: Sketch 40.1 (33804) - http://www.bohemiancoding.com/sketch -->
    <title>投票アイコン1</title>
    <desc>Created with Sketch.</desc>
    <defs></defs>
    <g id="Page-1" stroke="none" stroke-width="1" fill="none" fill-rule="evenodd">
        <g id="idea-pitch" transform="translate(-86.000000, -206.000000)" fill="#4B4B4B">
            <g id="main" transform="translate(19.000000, 73.000000)">
                <g id="Group-5" transform="translate(0.000000, 63.000000)">
                    <g id="投票アイコン1" transform="translate(67.000000, 70.000000)">
                        <g id="_x32_">
                            <g id="Group">
                                <path d="M5.90605859,16.5425544 L23,16.5425544 L20.9413203,13.4232969 L18.6243398,13.4232969 L17.3161699,4.04369519 L15.4976875,4.28934995 C15.2481465,4.08106588 14.7614629,3.70691615 13.9044883,3.18027273 C13.1022734,2.68400406 12.1762539,2.42665989 11.4306406,2.42665989 L6.81285156,2.42665989 L6.14320117,2.03347059 L3.38683984,6.07039123 L4.65206445,6.83073433 L6.30752539,9.15010845 C6.49237891,9.40962225 6.74191992,9.6203416 7.03130664,9.75831209 C7.03130664,9.75831209 8.15215234,10.2803506 9.04708594,10.7201647 C9.37007422,10.8793887 9.74975391,11.0198387 10.157959,11.1462083 L10.4760059,13.4232526 L7.96168359,13.4232526 L5.90605859,16.5425544 L5.90605859,16.5425544 Z M12.3970898,11.7473718 C13.6411563,12.0752509 14.6879707,10.827849 13.6648301,9.98776107 C12.334873,8.8949339 12.2925566,8.89001904 12.2925566,8.89001904 C11.8507051,8.53668 11.594291,8.00791123 11.5899336,7.44628813 C11.5874629,6.8871446 11.8364199,6.35563059 12.2732852,5.99525134 L12.7462676,5.60941219 L16.5039824,5.09901882 L17.6653027,13.4232083 L17.8382969,14.6703003 L11.6085762,14.6703003 L11.435582,13.4232083 L11.1573809,11.4292781 C11.5774902,11.5394419 12.0025859,11.6422113 12.3970898,11.7473718 L12.3970898,11.7473718 Z" id="Shape"></path>
                                <polygon id="Shape" points="3.40858203 0.0174455615 0 5.0493831 2.43710156 6.59765455 5.87991406 1.5663369"></polygon>
                            </g>
                        </g>
                    </g>
                </g>
            </g>
        </g>
    </g>
</svg>